<mxfile host="app.diagrams.net" modified="2024-07-13T20:06:41.816Z" agent="Mozilla/5.0 (Windows NT 10.0; Win64; x64) AppleWebKit/537.36 (KHTML, like Gecko) Chrome/126.0.0.0 Safari/537.36" version="24.6.4" etag="yEsfS_AivP4BrHcxbGrj" type="github">
  <diagram name="PÃ¡gina-1" id="ERaepJcebWJIgo3_Vwx8">
    <mxGraphModel>
      <root>
        <mxCell id="0" />
        <mxCell id="1" parent="0" />
      </root>
    </mxGraphModel>
  </diagram>
</mxfile>
